<svg width="16" height="23" viewBox="0 0 16 23" fill="none" xmlns="http://www.w3.org/2000/svg">
<path d="M16 7C16 10.5638 12.9413 13.5137 9 13.945V15C9 15.2652 8.89464 15.5196 8.70711 15.7071C8.51957 15.8946 8.26522 16 8 16C7.73478 16 7.48043 15.8946 7.29289 15.7071C7.10536 15.5196 7 15.2652 7 15V13C7 12.7348 7.10536 12.4804 7.29289 12.2929C7.48043 12.1054 7.73478 12 8 12C11.3087 12 14 9.7575 14 7C14 4.2425 11.3087 2 8 2C4.69125 2 2 4.2425 2 7C2 7.26522 1.89464 7.51957 1.70711 7.70711C1.51957 7.89464 1.26522 8 1 8C0.734784 8 0.48043 7.89464 0.292893 7.70711C0.105357 7.51957 0 7.26522 0 7C0 3.14 3.58875 0 8 0C12.4113 0 16 3.14 16 7ZM8 19C7.60444 19 7.21776 19.1173 6.88886 19.3371C6.55996 19.5568 6.30362 19.8692 6.15224 20.2346C6.00087 20.6001 5.96126 21.0022 6.03843 21.3902C6.1156 21.7781 6.30608 22.1345 6.58579 22.4142C6.86549 22.6939 7.22186 22.8844 7.60982 22.9616C7.99778 23.0387 8.39992 22.9991 8.76537 22.8478C9.13082 22.6964 9.44318 22.44 9.66294 22.1111C9.8827 21.7822 10 21.3956 10 21C10 20.4696 9.78929 19.9609 9.41421 19.5858C9.03914 19.2107 8.53043 19 8 19Z" fill="white"/>
</svg>
